<svg xmlns="http://www.w3.org/2000/svg" width="138.25" height="132.62" viewBox="0 0 138.25 132.62">
  <g id="Group_9" data-name="Group 9" transform="translate(-6735.889 -3001.449)">
    <g id="Group_8" data-name="Group 8" transform="translate(6735.888 3001.449)">
      <path id="Path_29" data-name="Path 29" d="M6808.391,3089.622c-11.755.154-28.149,10.517-32.943,20.106s-15.776,9.59-15.776,9.59l3.713,15.621c9.589-1.856,17.167-7.888,25.829-19.488s25.828-9.744,19.332-4.021-9.642,14.693-9.642,14.693-4.949,11.961-21.653,10.311-22.891,8.249-22.478,17.323,12.579,18.147,40.625,18.147c0,0,12.444.584,16.12,7.51v-30.4s-13.439,12.992-26.019,8.249,23.75-7.63,31.587-17.529l.034-60.474h-6.409S6820.146,3089.467,6808.391,3089.622Z" transform="translate(-6748.031 -3051.53)" fill="#fff"/>
      <path id="Path_30" data-name="Path 30" d="M6969.629,3136.433c-16.7,1.65-21.653-10.311-21.653-10.311s-3.147-8.97-9.643-14.693,10.671-7.579,19.333,4.021,16.24,17.632,25.829,19.488l3.712-15.621s-10.981,0-15.776-9.59-21.189-19.952-32.943-20.106-2.32-10.363-2.32-10.363h-6.409l.034,60.474c7.836,9.9,44.167,12.786,31.586,17.529s-26.019-8.249-26.019-8.249v30.4c3.676-6.926,16.12-7.51,16.12-7.51,28.046,0,40.213-9.074,40.626-18.147S6986.333,3134.784,6969.629,3136.433Z" transform="translate(-6860.67 -3051.53)" fill="#fff"/>
      <path id="Path_31" data-name="Path 31" d="M6914.04,3301.814a57.766,57.766,0,0,1,2.475,15.673c0,8.043,3.094-8.661,3.094-15.673s-.31-14.435-4.331-11.342l-1.237,1.031Z" transform="translate(-6850.552 -3187.009)" fill="#ffa9ff"/>
      <path id="Path_32" data-name="Path 32" d="M6935.232,3301.814a57.767,57.767,0,0,0-2.475,15.673c0,8.043-3.093-8.661-3.093-15.673s.309-14.435,4.33-11.342l1.237,1.031Z" transform="translate(-6860.609 -3187.009)" fill="#ffa9ff"/>
      <path id="Path_33" data-name="Path 33" d="M6748.29,3200.651s-14.24,11.225-12.2,29.719a35.016,35.016,0,0,0,.666,3.94c4.743,20.829,13.242,9.383,9.458,5.421-6.159-6.452-2.112-18.331-.668-16.268s-.153,8.373,2.746,7.135,2.952-17.529,2.952-17.529Z" transform="translate(-6735.889 -3129.662)" fill="#ffa9ff"/>
      <path id="Path_34" data-name="Path 34" d="M7083.7,3200.651s14.241,11.225,12.2,29.719a35.029,35.029,0,0,1-.666,3.94c-4.745,20.829-13.243,9.383-9.459,5.421,6.159-6.452,2.113-18.331.669-16.268s.153,8.373-2.747,7.135-2.951-17.529-2.951-17.529Z" transform="translate(-6957.85 -3129.662)" fill="#ffa9ff"/>
      <path id="Path_35" data-name="Path 35" d="M6930.648,3030.864c-.04.97,2.3,2.176,3.265.667,1.273-1.994-1.923-3.884-1.923-3.884" transform="translate(-6861.242 -3018.311)" fill="none" stroke="#000" stroke-miterlimit="10" stroke-width="0.7"/>
      <path id="Path_36" data-name="Path 36" d="M6922.341,3030.864c.04.97-2.3,2.176-3.265.667-1.274-1.994,1.923-3.884,1.923-3.884" transform="translate(-6853.601 -3018.311)" fill="none" stroke="#000" stroke-miterlimit="10" stroke-width="0.7"/>
      <path id="Path_37" data-name="Path 37" d="M6929.76,3047.515a7.275,7.275,0,0,0,4.931,1.289" transform="translate(-6860.67 -3031.098)" fill="none" stroke="#000" stroke-miterlimit="10" stroke-width="1"/>
      <path id="Path_38" data-name="Path 38" d="M6920.854,3047.515a7.278,7.278,0,0,1-4.932,1.289" transform="translate(-6851.764 -3031.098)" fill="none" stroke="#000" stroke-miterlimit="10" stroke-width="1"/>
      <circle id="Ellipse_3" data-name="Ellipse 3" cx="0.643" cy="0.643" r="0.643" transform="translate(66.097 12.647)"/>
      <path id="Path_39" data-name="Path 39" d="M6935.766,3037.381a.644.644,0,1,1-.812-.412.644.644,0,0,1,.812.412Z" transform="translate(-6863.728 -3024.29)"/>
      <path id="Path_40" data-name="Path 40" d="M6892.076,3001.45c-16-.152-24.054,15.018-20.413,18.811s5.613-4.1,6.522,2.427,9.861,7.737,9.861,7.737h8.059s8.95-1.213,9.861-7.737,2.882,1.365,6.523-2.427-4.419-18.963-20.414-18.811" transform="translate(-6822.721 -3001.449)" fill="#ffa9ff"/>
      <path id="Path_41" data-name="Path 41" d="M6920.506,3061.98a3.371,3.371,0,0,1-2.26.889,3.06,3.06,0,0,1-3.038-1.377c-.35-.838.57-.975,1.172,0a1.843,1.843,0,0,0,2.51.473c.986-.653,1.369-1.491,2.042-1.252S6920.506,3061.98,6920.506,3061.98Z" transform="translate(-6851.255 -3039.567)"/>
      <path id="Path_42" data-name="Path 42" d="M6935.056,3061.729a3.1,3.1,0,0,1-2.268,1.1,3.06,3.06,0,0,1-3.039-1.378c-.348-.838.494-1.319,1.1-.344a1.766,1.766,0,0,0,2.429.592c.987-.653,1.7-1.532,2.2-1.027C6935.773,3060.969,6935.056,3061.729,6935.056,3061.729Z" transform="translate(-6860.611 -3039.469)"/>
      <rect id="Rectangle_22" data-name="Rectangle 22" width="4.672" height="58.921" transform="translate(67.168 29.417)" fill="#fff"/>
      <path id="Path_43" data-name="Path 43" d="M6985.544,3214.938" transform="translate(-6896.574 -3138.857)" fill="#705cff"/>
    </g>
    <path id="Path_44" data-name="Path 44" d="M6914.62,3022.485c-2.571,1.636-3.1-.468-6.369,0a3.917,3.917,0,0,0-2.743,1.562h0a4.019,4.019,0,0,0-.377.636c-.2.158-.493.164-.873-.33-.855-1.109-.913.785-1.79.409a4.689,4.689,0,0,1-1.161-.8,3.692,3.692,0,0,0-.7-.693h0a4.2,4.2,0,0,0-1.982-.785c-3.272-.468-3.8,1.636-6.369,0s-3.506-.6-2.045,1.718,2.64,4.244,8.776,4.243a4.836,4.836,0,0,0,1.62-.327,3.577,3.577,0,0,0,2.385-1.836c.935-1.636,1.215,1.363,3.645,1.967h0a4.913,4.913,0,0,0,1.25.2c6.136,0,7.315-1.93,8.776-4.243S6917.19,3020.849,6914.62,3022.485Z" transform="translate(-98.884 -13.027)" fill="#fff"/>
    <path id="Path_45" data-name="Path 45" d="M6910.521,3036.171a1.076,1.076,0,0,1,.712-.842.949.949,0,0,1,1.334.842.923.923,0,0,1-1.022,1.015,1.033,1.033,0,0,1-1.023-1.015Z" transform="translate(-112.399 -21.77)"/>
    <path id="Path_46" data-name="Path 46" d="M6943.142,3036.171a1.076,1.076,0,0,1,.712-.842.949.949,0,0,1,1.333.842.922.922,0,0,1-1.022,1.015,1.032,1.032,0,0,1-1.023-1.015Z" transform="translate(-133.395 -21.77)"/>
    <path id="Path_47" data-name="Path 47" d="M6923.168,3046.8a1.07,1.07,0,0,1,.711-.842.948.948,0,0,1,1.333.842.923.923,0,0,1-1.022,1.015,1.032,1.032,0,0,1-1.021-1.015Z" transform="translate(-120.54 -28.61)"/>
    <path id="Path_48" data-name="Path 48" d="M6930.647,3046.8a1.072,1.072,0,0,1,.712-.842.948.948,0,0,1,1.334.842.922.922,0,0,1-1.022,1.015A1.033,1.033,0,0,1,6930.647,3046.8Z" transform="translate(-125.353 -28.61)"/>
    <path id="Path_49" data-name="Path 49" d="M6910.2,3033.432s-.521-.025-1.479-.984-1.635.958-2.931,1.071-.226.733.677.338,1.318-1.546,2.874-.113C6910.69,3034.985,6911.9,3034.165,6910.2,3033.432Z" transform="translate(-108.969 -19.78)"/>
    <path id="Path_50" data-name="Path 50" d="M6938.645,3033.432s.521-.025,1.479-.984,1.635.958,2.931,1.071.226.733-.676.338-1.318-1.546-2.875-.113C6938.158,3034.985,6936.947,3034.165,6938.645,3033.432Z" transform="translate(-129.965 -19.78)"/>
    <path id="Path_51" data-name="Path 51" d="M6961.924,3027.2a2.011,2.011,0,0,1,2.328-.361c1.4.653,4.207.574,4.207-.219s-.613-.618-1.666-.618-3.624.4-3.571-.955-2.125,0-2.125,0" transform="translate(-144.952 -14.804)" fill="#fff"/>
    <path id="Path_52" data-name="Path 52" d="M6881.921,3026.379a2.5,2.5,0,0,0-2.641-.625c-1.4.653-4.206.573-4.206-.219s.612-.618,1.664-.618,3.958.292,3.484-1.723c-.31-1.321,2.212.768,2.212.768" transform="translate(-89.585 -13.714)" fill="#fff"/>
  </g>
</svg>
