<svg xmlns="http://www.w3.org/2000/svg" width="869.655" height="557.896" viewBox="0 0 869.655 557.896">
  <g id="Component_5_5" data-name="Component 5 – 5" transform="translate(1.757 26.453)">
    <path id="Path_15" data-name="Path 15" d="M369.984,435.079,6.5.445,27.858,417.228Z" transform="matrix(-0.643, 0.766, -0.766, -0.643, 785.527, 248.321)" fill="#4a0f60"/>
    <path id="Polygon_2" data-name="Polygon 2" d="M43.63,0l43.63,170.8H0Z" transform="translate(386.531 81.536)" fill="#fff"/>
    <path id="Path_24" data-name="Path 24" d="M0,1.7,29.258.667" transform="matrix(-0.342, -0.94, 0.94, -0.342, 9.525, 247.635)" fill="none" stroke="#fff" stroke-width="4"/>
    <path id="Path_25" data-name="Path 25" d="M-3891.4,551.787l436.3-246.066,261.767,289.073" transform="translate(3902.155 -304.382)" fill="none" stroke="#fff" stroke-width="1"/>
    <path id="Path_26" data-name="Path 26" d="M0,.181,29.261.734" transform="translate(707.628 290.104) rotate(-80)" fill="none" stroke="#fff" stroke-width="4"/>
    <path id="Path_27" data-name="Path 27" d="M-3346.051,305.72l419.493,183.2" transform="translate(3793.382 -304.382)" fill="none" stroke="#fff" stroke-width="1"/>
    <path id="Path_28" data-name="Path 28" d="M0,.022,17.594.091" transform="matrix(0.035, -0.999, 0.999, 0.035, 865.193, 183.735)" fill="none" stroke="#fff" stroke-width="4"/>
  </g>
</svg>
