<svg xmlns="http://www.w3.org/2000/svg" width="325.958" height="291.023" viewBox="0 0 325.958 291.023">
  <g id="Component_4_1" data-name="Component 4 – 1" transform="translate(-48.766 15.847) rotate(-11)">
    <path id="Path_11" data-name="Path 11" d="M244.3,111.084s20.04-11.624,34.47,5.611,2,18.037,10.019,35.272-12.824-3.608-22.244-1.6-33.47,24.049-64.732,34.07-61.725,13.628-85.375,32.467-18.838,32.062-35.674,31.664-42.887-9.619-22.849-18.036,93.79-45.293,78.96-58.92S96.787,167.6,74.341,131.527s-62.2-8.869-72.947-24.275,42.888-25.427,83.37-25.026S175.35,77.015,201,107.478s7.216-28.057,36.876-55.312,32.062-61.726,44.49-49.7-24.45,84.973-38.878,97.4S233.872,116.7,244.3,111.084Z" transform="translate(89.045 1.165) rotate(19.993)" fill="#792020"/>
  </g>
</svg>
